<svg viewBox="0 0 8.75391 8.75206" xmlns="http://www.w3.org/2000/svg" xmlns:xlink="http://www.w3.org/1999/xlink" width="8.753906" height="8.752060" fill="none" customframe="#000000">
	<path id="Vector" d="M0 0L10.1053 0" stroke="rgb(0,0,0)" stroke-width="1.60000002" transform="matrix(-0.707107,0.707107,-0.707107,-0.707107,7.94727,0.803284)"/>
	<path id="Vector" d="M0 -0.8L10.1053 -0.8L10.1053 0.8L0 0.8L0 -0.8ZM0.02 0.78L0 0.8C-0.448 0.8 -0.8 0.448 -0.8 -0C-0.8 -0.448 -0.448 -0.8 0 -0.8L0.02 -0.78L0.02 0.78ZM10.0853 -0.78L10.1053 -0.8C10.5533 -0.8 10.9053 -0.448 10.9053 0C10.9053 0.448 10.5533 0.8 10.1053 0.8L10.0853 0.78L10.0853 -0.78Z" fill="rgb(0,0,0)" fill-rule="nonzero" transform="matrix(0.707107,0.707107,-0.707107,0.707107,0.804688,0.803284)"/>
</svg>