<svg width="13" height="12" viewBox="0 0 13 12" fill="none" xmlns="http://www.w3.org/2000/svg">
<path d="M8.97461 0.900391C10.7228 0.900391 12.0995 2.25703 12.0996 3.99707C12.0996 5.05747 11.6165 6.01433 10.7881 7.01855C9.96072 8.02151 8.77853 9.08477 7.36426 10.3555L6.56738 11.0742L6.5 11.1348L6.43262 11.0742L5.63574 10.3555C4.22147 9.08477 3.03928 8.02151 2.21191 7.01855C1.38351 6.01433 0.900391 5.05747 0.900391 3.99707C0.900499 2.25703 2.27722 0.900391 4.02539 0.900391C4.97312 0.900506 5.88213 1.32024 6.5 1.98535C7.11787 1.32024 8.02689 0.900506 8.97461 0.900391ZM8.97461 2.18945C8.16607 2.18962 7.37991 2.71282 7.10449 3.41309L7.08008 3.47559H5.91992L5.89551 3.41309C5.62009 2.71282 4.83393 2.18962 4.02539 2.18945C2.97982 2.18945 2.2003 2.96335 2.2002 3.99707C2.2002 4.74731 2.61194 5.50582 3.36621 6.37988C4.11758 7.25057 5.19341 8.21857 6.49707 9.39062C7.8036 8.21845 8.88169 7.25063 9.63379 6.37988C10.3886 5.50594 10.7998 4.74723 10.7998 3.99707C10.7997 2.96335 10.0202 2.18945 8.97461 2.18945Z" fill="black" stroke="black" stroke-width="0.2"/>
</svg>
